<?xml version="1.0" encoding="UTF-8" standalone="no"?>
<!-- Created with Inkscape (http://www.inkscape.org/) -->

<svg
   xmlns:dc="http://purl.org/dc/elements/1.1/"
   xmlns:cc="http://creativecommons.org/ns#"
   xmlns:rdf="http://www.w3.org/1999/02/22-rdf-syntax-ns#"
   xmlns:svg="http://www.w3.org/2000/svg"
   xmlns="http://www.w3.org/2000/svg"
   xmlns:sodipodi="http://sodipodi.sourceforge.net/DTD/sodipodi-0.dtd"
   xmlns:inkscape="http://www.inkscape.org/namespaces/inkscape"
   width="210mm"
   height="297mm"
   viewBox="0 0 210 297"
   version="1.1"
   id="svg8"
   inkscape:version="0.92.2 2405546, 2018-03-11"
   sodipodi:docname="drawing.svg">
  <defs
     id="defs2">
    <marker
       inkscape:stockid="Arrow1Mend"
       orient="auto"
       refY="0.0"
       refX="0.0"
       id="marker6822"
       style="overflow:visible;"
       inkscape:isstock="true">
      <path
         id="path6820"
         d="M 0.0,0.0 L 5.0,-5.0 L -12.5,0.0 L 5.0,5.0 L 0.0,0.0 z "
         style="fill-rule:evenodd;stroke:#000000;stroke-width:1pt;stroke-opacity:1;fill:#000000;fill-opacity:1"
         transform="scale(0.4) rotate(180) translate(10,0)" />
    </marker>
    <marker
       inkscape:isstock="true"
       style="overflow:visible;"
       id="marker6468"
       refX="0.0"
       refY="0.0"
       orient="auto"
       inkscape:stockid="Arrow1Mend"
       inkscape:collect="always">
      <path
         transform="scale(0.4) rotate(180) translate(10,0)"
         style="fill-rule:evenodd;stroke:#000000;stroke-width:1pt;stroke-opacity:1;fill:#000000;fill-opacity:1"
         d="M 0.0,0.0 L 5.0,-5.0 L -12.5,0.0 L 5.0,5.0 L 0.0,0.0 z "
         id="path6466" />
    </marker>
    <marker
       inkscape:stockid="Arrow1Mend"
       orient="auto"
       refY="0.0"
       refX="0.0"
       id="Arrow1Mend"
       style="overflow:visible;"
       inkscape:isstock="true"
       inkscape:collect="always">
      <path
         id="path4643"
         d="M 0.0,0.0 L 5.0,-5.0 L -12.5,0.0 L 5.0,5.0 L 0.0,0.0 z "
         style="fill-rule:evenodd;stroke:#000000;stroke-width:1pt;stroke-opacity:1;fill:#000000;fill-opacity:1"
         transform="scale(0.4) rotate(180) translate(10,0)" />
    </marker>
    <marker
       inkscape:stockid="Arrow1Mend"
       orient="auto"
       refY="0"
       refX="0"
       id="Arrow1Mend-5"
       style="overflow:visible"
       inkscape:isstock="true">
      <path
         inkscape:connector-curvature="0"
         id="path4643-3"
         d="M 0,0 5,-5 -12.5,0 5,5 Z"
         style="fill:#000000;fill-opacity:1;fill-rule:evenodd;stroke:#000000;stroke-width:1.00000003pt;stroke-opacity:1"
         transform="matrix(-0.4,0,0,-0.4,-4,0)" />
    </marker>
    <marker
       inkscape:stockid="Arrow1Mend"
       orient="auto"
       refY="0"
       refX="0"
       id="Arrow1Mend-5-6"
       style="overflow:visible"
       inkscape:isstock="true">
      <path
         inkscape:connector-curvature="0"
         id="path4643-3-2"
         d="M 0,0 5,-5 -12.5,0 5,5 Z"
         style="fill:#000000;fill-opacity:1;fill-rule:evenodd;stroke:#000000;stroke-width:1.00000003pt;stroke-opacity:1"
         transform="matrix(-0.4,0,0,-0.4,-4,0)" />
    </marker>
    <marker
       inkscape:stockid="Arrow1Mend"
       orient="auto"
       refY="0"
       refX="0"
       id="Arrow1Mend-5-9"
       style="overflow:visible"
       inkscape:isstock="true">
      <path
         inkscape:connector-curvature="0"
         id="path4643-3-3"
         d="M 0,0 5,-5 -12.5,0 5,5 Z"
         style="fill:#000000;fill-opacity:1;fill-rule:evenodd;stroke:#000000;stroke-width:1.00000003pt;stroke-opacity:1"
         transform="matrix(-0.4,0,0,-0.4,-4,0)" />
    </marker>
  </defs>
  <sodipodi:namedview
     id="base"
     pagecolor="#ffffff"
     bordercolor="#666666"
     borderopacity="1.0"
     inkscape:pageopacity="0.0"
     inkscape:pageshadow="2"
     inkscape:zoom="0.98994949"
     inkscape:cx="231.18147"
     inkscape:cy="582.90476"
     inkscape:document-units="mm"
     inkscape:current-layer="layer1"
     showgrid="false"
     inkscape:window-width="1910"
     inkscape:window-height="2029"
     inkscape:window-x="1920"
     inkscape:window-y="0"
     inkscape:window-maximized="0" />
  <metadata
     id="metadata5">
    <rdf:RDF>
      <cc:Work
         rdf:about="">
        <dc:format>image/svg+xml</dc:format>
        <dc:type
           rdf:resource="http://purl.org/dc/dcmitype/StillImage" />
        <dc:title></dc:title>
      </cc:Work>
    </rdf:RDF>
  </metadata>
  <g
     inkscape:label="Layer 1"
     inkscape:groupmode="layer"
     id="layer1">
    <g
       id="g6943">
      <path
         inkscape:connector-curvature="0"
         id="path4632"
         d="m 125.34906,116.13648 v 25.25697"
         style="fill:none;stroke:#000000;stroke-width:0.60000002;stroke-linecap:butt;stroke-linejoin:miter;stroke-miterlimit:4;stroke-dasharray:none;stroke-opacity:1;marker-end:url(#Arrow1Mend)" />
      <rect
         ry="6.130044"
         rx="5.0965376"
         y="77.930962"
         x="103.9212"
         height="40.100109"
         width="40.100109"
         id="rect4518"
         style="fill:#ffffff;fill-opacity:1;stroke:#000000;stroke-width:0.5;stroke-miterlimit:4;stroke-dasharray:none;stroke-dashoffset:0;stroke-opacity:1" />
      <g
         transform="matrix(0.18911899,0,0,0.18911899,96.369588,70.731802)"
         id="g4528"
         data-name="Group">
        <path
           id="path4522"
           d="M 58.7,13.7 H 58.5 L 51,6.4 H 24.4 V 32.6 H 20.8 L 7.5,57.3 v 36.3 h 85 V 57.3 L 79.2,32.6 h -3.6 v -3 z m 7.8,42.9 -0.2,0.8 c 0,0.1 -3,14 -16.8,14 -9.1,0 -13.4,-5.8 -15.4,-10 V 15.7 H 57 v 15.9 h 16.6 v 25 z M 59,16.7 72.6,29.6 H 59 Z m -7.7,-3 V 9.4 l 4.4,4.3 z m -2,-5.3 v 5.3 H 32.1 V 56.6 H 26.4 V 8.4 Z M 22,34.6 h 2.5 v 22 H 10.1 Z m 68.5,57 h -81 v -33 h 21.4 a 23.6,23.6 0 0 0 1.2,3.2 v 0 c 2.1,4.6 7,11.6 17.3,11.6 C 62.8,73.4 67,61.8 68,58.6 H 90.5 Z M 78,34.6 89.9,56.6 H 75.6 v -22 z"
           data-name="Compound Path"
           inkscape:connector-curvature="0" />
        <rect
           id="rect4524"
           height="2"
           width="26.9"
           y="49.5"
           x="40"
           data-name="Path" />
        <rect
           id="rect4526"
           height="2"
           width="16.6"
           y="38.299999"
           x="40"
           data-name="Path" />
      </g>
      <path
         inkscape:connector-curvature="0"
         id="path4556"
         d="m 98.190031,84.929037 v -3.080504 h 2.002209 2.0022 l 0.0574,0.1791 c 0.11531,0.359647 0.52745,1.093877 0.77283,1.376814 0.72323,0.833907 1.56059,1.214152 2.67377,1.214152 0.64232,0 1.08763,-0.09408 1.5898,-0.335861 0.48148,-0.231822 0.89828,-0.570609 1.21447,-0.987165 0.24413,-0.321621 0.6375,-1.062561 0.69851,-1.315701 l 0.0316,-0.131339 h 2.12013 2.12013 v 3.080504 3.080505 h -7.64156 -7.641559 z"
         style="fill:#ffffff;fill-opacity:1;stroke:#000000;stroke-width:0.04775976;stroke-miterlimit:4;stroke-dasharray:none;stroke-dashoffset:0;stroke-opacity:1" />
      <path
         inkscape:connector-curvature="0"
         id="path4558"
         d="m 104.8764,84.098215 c -0.81355,-0.222226 -1.50441,-0.778803 -1.90905,-1.537993 l -0.14462,-0.271342 v -4.279754 -4.279751 h 2.14919 2.14918 v 1.504432 1.504432 h 1.57608 1.57607 v 2.338916 2.338918 l -0.67319,0.01326 -0.67318,0.01326 -0.1069,0.334319 c -0.38422,1.201645 -1.20807,2.050351 -2.24865,2.316485 -0.48246,0.123394 -1.25286,0.125594 -1.69493,0.0048 z m 4.1551,-3.801874 v -0.214919 h -2.55515 -2.55515 v 0.214919 0.214918 h 2.55515 2.55515 z m -1.91959,-2.137249 -0.0147,-0.20298 -1.58801,-0.01258 -1.58802,-0.01258 v 0.215563 0.215562 h 1.6027 1.6027 z"
         style="fill:#ffffff;fill-opacity:1;stroke:#000000;stroke-width:0.04775976;stroke-miterlimit:4;stroke-dasharray:none;stroke-dashoffset:0;stroke-opacity:1" />
      <path
         inkscape:connector-curvature="0"
         id="path4560"
         d="m 101.39477,76.904714 v -4.537177 h 2.14919 2.14919 v 0.477598 0.477597 h -1.64771 -1.64771 v 4.059579 4.059581 h -0.50148 -0.50148 z"
         style="fill:#ffffff;fill-opacity:1;stroke:#000000;stroke-width:0.04775976;stroke-miterlimit:4;stroke-dasharray:none;stroke-dashoffset:0;stroke-opacity:1" />
      <path
         inkscape:connector-curvature="0"
         id="path4562"
         d="m 98.524629,81.048556 c 0.10979,-0.203575 0.609306,-1.127726 1.110036,-2.053668 l 0.910425,-1.683531 h 0.2075 0.20751 v 2.053669 2.05367 h -1.317545 -1.317543 z"
         style="fill:#ffffff;fill-opacity:1;stroke:#000000;stroke-width:0.04775976;stroke-miterlimit:4;stroke-dasharray:none;stroke-dashoffset:0;stroke-opacity:1" />
      <path
         inkscape:connector-curvature="0"
         id="path4564"
         d="m 107.55094,75.132819 v -1.17558 l 0.6567,0.621348 c 0.36118,0.341742 0.9146,0.869709 1.22981,1.17326 l 0.57312,0.551914 -1.22981,0.0023 -1.22982,0.0023 z"
         style="fill:#ffffff;fill-opacity:1;stroke:#000000;stroke-width:0.04775976;stroke-miterlimit:4;stroke-dasharray:none;stroke-dashoffset:0;stroke-opacity:1" />
      <path
         inkscape:connector-curvature="0"
         id="path4566"
         d="m 106.11815,72.954558 v -0.344976 l 0.33432,0.331757 c 0.18387,0.182466 0.33432,0.337706 0.33432,0.344976 0,0.0073 -0.15045,0.01322 -0.33432,0.01322 h -0.33432 z"
         style="fill:#ffffff;fill-opacity:1;stroke:#000000;stroke-width:0.04775976;stroke-miterlimit:4;stroke-dasharray:none;stroke-dashoffset:0;stroke-opacity:1" />
      <path
         inkscape:connector-curvature="0"
         id="path4593"
         d="m 110.69539,79.336072 v -2.055244 l 0.2008,0.0011 0.2008,0.0011 1.08668,2.012354 c 0.59768,1.106795 1.09377,2.031159 1.10243,2.054141 0.009,0.02357 -0.55188,0.04178 -1.28748,0.04178 h -1.30323 z"
         style="fill:#ffffff;fill-opacity:1;stroke:#000000;stroke-width:0.04724703;stroke-miterlimit:4;stroke-dasharray:none;stroke-dashoffset:0;stroke-opacity:1" />
      <path
         id="path4610"
         d="m 128.85175,100.86998 c -4.34681,0 -7.87062,-3.523123 -7.87062,-7.86908 0,-4.345784 3.52381,-7.868902 7.87062,-7.868902 4.34681,0 7.87045,3.523118 7.87045,7.868902 0,4.345957 -3.52364,7.86908 -7.87045,7.86908 z m 0,-15.029999 c -3.95048,0 -7.15321,3.203583 -7.15321,7.155262 0,3.95168 3.20273,7.155437 7.15321,7.155437 3.95065,0 7.15304,-3.203585 7.15304,-7.155437 0,-3.95185 -3.20239,-7.155262 -7.15304,-7.155262 z m 3.12901,5.891349 -2.94456,1.609848 c -0.18068,0.09857 -0.40713,0.03223 -0.50553,-0.149139 -0.0358,-0.066 -0.0428,-0.136625 -0.0377,-0.206224 -1.7e-4,-0.0046 -0.003,-0.0087 -0.003,-0.01354 v -5.319133 c 0,-0.209824 0.16183,-0.379878 0.36136,-0.379878 0.19954,0 0.36119,0.170226 0.36119,0.379878 v 4.740232 l 2.41126,-1.318083 c 0.18034,-0.09874 0.40662,-0.03206 0.50519,0.149139 0.0987,0.181024 0.0326,0.408162 -0.14845,0.506902 z"
         inkscape:connector-curvature="0"
         style="clip-rule:evenodd;fill-rule:evenodd;stroke-width:0.17142458" />
      <text
         id="text4918"
         y="113.46378"
         x="110.38197"
         style="font-style:normal;font-variant:normal;font-weight:normal;font-stretch:normal;font-size:6.35000086px;line-height:1.25;font-family:Inconsolata;-inkscape-font-specification:Inconsolata;letter-spacing:0px;word-spacing:0px;fill:#000000;fill-opacity:1;stroke:none;stroke-width:0.26458332"
         xml:space="preserve"><tspan
           style="stroke-width:0.26458332"
           y="113.46378"
           x="110.38197"
           id="tspan4916"
           sodipodi:role="line">task_led</tspan></text>
      <g
         id="g5074">
        <rect
           style="fill:#ffffff;fill-opacity:1;stroke:#000000;stroke-width:0.5;stroke-miterlimit:4;stroke-dasharray:none;stroke-dashoffset:0;stroke-opacity:1"
           id="rect4518-3"
           width="40.100109"
           height="40.100109"
           x="41.42194"
           y="22.509356"
           rx="5.0965376"
           ry="6.130044" />
        <text
           xml:space="preserve"
           style="font-style:normal;font-variant:normal;font-weight:normal;font-stretch:normal;font-size:6.35000086px;line-height:1.25;font-family:Inconsolata;-inkscape-font-specification:Inconsolata;letter-spacing:0px;word-spacing:0px;fill:#000000;fill-opacity:1;stroke:none;stroke-width:0.26458332"
           x="49.246204"
           y="58.582073"
           id="text4918-6"><tspan
             sodipodi:role="line"
             id="tspan4916-7"
             x="49.246204"
             y="58.582073"
             style="stroke-width:0.26458332">task_but</tspan></text>
        <g
           id="g5060"
           transform="translate(-76.24233,3.9304354)">
          <g
             transform="matrix(0.26458333,0,0,0.26458333,109.72677,9.8206828)"
             id="g5014">
            <path
               id="path5010"
               d="m 30,9.318 c -9.372,0 -16.97,6.804 -16.97,15.195 v 41.855 c 0,8.391 7.599,15.195 16.97,15.195 9.373,0 16.972,-6.805 16.972,-15.195 V 24.514 C 46.972,16.123 39.373,9.318 30,9.318 Z m 0,63.958 c -4.278,0 -7.747,-3.468 -7.747,-7.748 0,-4.278 3.469,-7.746 7.747,-7.746 4.279,0 7.746,3.468 7.746,7.746 0,4.281 -3.467,7.748 -7.746,7.748 z m 0,-20.088 c -4.278,0 -7.747,-3.468 -7.747,-7.747 0,-4.278 3.469,-7.746 7.747,-7.746 4.279,0 7.746,3.468 7.746,7.746 0,4.28 -3.467,7.747 -7.746,7.747 z m 0,-20.086 c -4.278,0 -7.747,-3.47 -7.747,-7.748 0,-4.277 3.469,-7.746 7.747,-7.746 4.278,0 7.748,3.469 7.748,7.746 0,4.278 -3.47,7.748 -7.748,7.748 z"
               inkscape:connector-curvature="0" />
            <path
               id="path5012"
               d="M 30,4 C 17.806,4 7.917,11.804 7.917,21.432 V 69.45 c 0,9.632 9.888,17.434 22.083,17.434 12.195,0 22.083,-7.802 22.083,-17.434 V 21.432 C 52.083,11.804 42.195,4 30,4 Z m 18.99,63.396 c 0,8.808 -8.502,15.942 -18.99,15.942 -10.487,0 -18.989,-7.135 -18.989,-15.942 v -43.91 c 0,-8.804 8.502,-15.942 18.989,-15.942 10.488,0 18.99,7.138 18.99,15.942 z"
               inkscape:connector-curvature="0" />
          </g>
          <circle
             style="stroke-width:0.26458332"
             id="circle5016"
             r="1.6406813"
             cy="27.168619"
             cx="117.66454" />
          <path
             transform="scale(0.26458333)"
             inkscape:connector-curvature="0"
             id="path5044"
             d="m 441.97129,120.19329 c -2.47925,-0.31839 -4.81491,-1.0495 -7.16692,-2.2434 -1.71945,-0.87282 -2.60802,-1.51032 -4.16022,-2.98477 -2.19197,-2.08215 -3.58268,-4.31757 -4.3647,-7.01579 l -0.40365,-1.39271 V 82.538758 c 0,-22.776708 0.017,-24.077838 0.32838,-25.178571 1.92988,-6.821534 8.33492,-11.673075 16.50995,-12.50557 8.2294,-0.838032 16.52233,3.412133 19.57853,10.034092 1.3589,2.944364 1.26171,0.814388 1.26171,27.650049 v 24.017862 l -0.40365,1.39271 c -0.80475,2.77663 -2.1894,4.96294 -4.55349,7.18977 -4.13365,3.89365 -10.52751,5.83735 -16.62594,5.05419 z m 5.60094,-1.66426 c 6.85219,-1.04061 12.02585,-5.39834 13.79008,-11.61527 l 0.40539,-1.42857 V 82.538758 59.59233 l -0.39985,-1.406814 c -1.84798,-6.501728 -7.43244,-10.935582 -14.7682,-11.725398 -7.58616,-0.816775 -15.12141,3.271098 -17.80553,9.659492 -1.20182,2.860421 -1.13266,1.24088 -1.13211,26.508434 l 5e-4,22.857146 0.40538,1.42857 c 0.80243,2.82778 2.10584,5.00744 4.17146,6.97582 4.01709,3.828 9.58412,5.51248 15.33288,4.63945 z"
             style="fill:#ffffff;fill-opacity:1;stroke:#000000;stroke-width:0.33745784;stroke-miterlimit:4;stroke-dasharray:none;stroke-dashoffset:0;stroke-opacity:1" />
          <path
             transform="scale(0.26458333)"
             inkscape:connector-curvature="0"
             id="path5046"
             d="m 442.7508,89.931053 c -3.71909,-0.995046 -6.23856,-4.881982 -5.55812,-8.574855 0.60812,-3.30041 3.09404,-5.754131 6.42388,-6.34067 1.39413,-0.245572 2.87379,-0.0039 4.42755,0.723212 2.94351,1.377436 4.7622,4.848451 4.19454,8.005375 -0.81279,4.520128 -5.14908,7.34778 -9.48785,6.186938 z"
             style="fill:#ffffff;fill-opacity:1;stroke:#000000;stroke-width:0.33745784;stroke-miterlimit:4;stroke-dasharray:none;stroke-dashoffset:0;stroke-opacity:1" />
          <path
             transform="scale(0.26458333)"
             inkscape:connector-curvature="0"
             id="path5048"
             d="m 442.22607,69.686459 c -2.63065,-0.972663 -4.52646,-3.243093 -5.04751,-6.044929 -0.59544,-3.201827 1.27704,-6.615166 4.45465,-8.12037 1.11946,-0.530277 1.34269,-0.571687 3.08188,-0.571687 1.73918,0 1.96242,0.04141 3.08188,0.571687 2.38303,1.128821 4.02766,3.272166 4.4636,5.817124 0.53748,3.137796 -1.31499,6.573758 -4.3312,8.033516 -1.02264,0.49493 -1.37313,0.568413 -2.94643,0.617746 -1.44577,0.04533 -1.97059,-0.01236 -2.75687,-0.303087 z"
             style="fill:#ffffff;fill-opacity:1;stroke:#000000;stroke-width:0.33745784;stroke-miterlimit:4;stroke-dasharray:none;stroke-dashoffset:0;stroke-opacity:1" />
          <path
             transform="scale(0.26458333)"
             inkscape:connector-curvature="0"
             id="path5050"
             d="m 444.37586,110.38141 c -0.0307,-0.002 -0.13365,-0.01 -0.22879,-0.0162 -1.13382,-0.0791 -2.22298,-0.40942 -3.25035,-0.98579 l -0.1421,-0.0797 -2e-4,-0.91795 -2.1e-4,-0.91795 0.11973,0.0951 c 0.73061,0.58005 1.61575,0.99564 2.5421,1.19355 1.37904,0.29463 2.80814,0.11388 4.06808,-0.51451 0.78363,-0.39084 1.44588,-0.91394 2.0014,-1.58088 1.132,-1.35904 1.62814,-3.13244 1.36829,-4.8908 -0.1666,-1.12736 -0.64111,-2.182128 -1.38325,-3.074774 -0.14966,-0.180019 -0.57961,-0.610117 -0.75849,-0.758758 -0.94599,-0.786079 -2.07489,-1.273305 -3.27036,-1.411474 -0.35302,-0.0408 -0.82352,-0.05226 -1.15513,-0.02813 -0.80771,0.05877 -1.55466,0.257951 -2.27683,0.607133 -0.43392,0.209812 -0.75858,0.4159 -1.22911,0.780218 l -0.0264,0.02046 v -0.953431 -0.95343 l 0.13114,-0.0746 c 1.03598,-0.58931 2.16671,-0.923857 3.38448,-1.00136 0.3942,-0.02509 1.0316,-0.0025 1.44532,0.05116 1.96989,0.255614 3.7719,1.26772 5.02762,2.823772 0.89383,1.107619 1.46801,2.450564 1.64626,3.850444 0.0507,0.39773 0.056,0.49367 0.056,0.99889 0,0.49445 -0.006,0.61571 -0.0512,0.97098 -0.19819,1.5731 -0.86485,3.03012 -1.92518,4.20759 -0.13234,0.14695 -0.45848,0.47378 -0.59064,0.59188 -1.27139,1.13612 -2.85259,1.81259 -4.56473,1.95286 -0.14535,0.0119 -0.83261,0.0234 -0.9375,0.0157 z"
             style="fill:#ffffff;fill-opacity:1;stroke:#000000;stroke-width:0.02109111;stroke-miterlimit:4;stroke-dasharray:none;stroke-dashoffset:0;stroke-opacity:1" />
        </g>
      </g>
      <path
         inkscape:connector-curvature="0"
         id="path4632-5-9"
         d="M 77.425668,56.259618 96.128726,73.233425"
         style="fill:none;stroke:#000000;stroke-width:0.60000002;stroke-linecap:butt;stroke-linejoin:miter;stroke-miterlimit:4;stroke-dasharray:none;stroke-opacity:1;marker-end:url(#Arrow1Mend-5-6)" />
      <g
         id="g5663">
        <rect
           style="fill:#ffffff;fill-opacity:1;stroke:#000000;stroke-width:0.42416021;stroke-miterlimit:4;stroke-dasharray:none;stroke-dashoffset:0;stroke-opacity:1"
           id="rect5651"
           width="8.3732347"
           height="12.462968"
           x="88.509361"
           y="50.958897"
           rx="0"
           ry="0" />
        <path
           style="fill:none;stroke:#000000;stroke-width:0.40268165;stroke-linecap:butt;stroke-linejoin:miter;stroke-miterlimit:4;stroke-dasharray:none;stroke-opacity:1"
           d="M 89.628675,54.55358 H 94.74084"
           id="path5653"
           inkscape:connector-curvature="0" />
        <path
           style="fill:none;stroke:#000000;stroke-width:0.40268165;stroke-linecap:butt;stroke-linejoin:miter;stroke-miterlimit:4;stroke-dasharray:none;stroke-opacity:1"
           d="m 89.628675,57.082757 h 2.475363"
           id="path5655"
           inkscape:connector-curvature="0" />
        <path
           style="fill:none;stroke:#000000;stroke-width:0.40268165;stroke-linecap:butt;stroke-linejoin:miter;stroke-miterlimit:4;stroke-dasharray:none;stroke-opacity:1"
           d="m 89.628675,59.934807 h 4.950729"
           id="path5657"
           inkscape:connector-curvature="0" />
      </g>
      <ellipse
         ry="6.3311014"
         rx="25.324406"
         cy="26.841516"
         cx="-13.229166"
         id="path5684"
         style="fill:#ffffff;fill-opacity:1;stroke:#000000;stroke-width:0.5;stroke-miterlimit:4;stroke-dasharray:none;stroke-dashoffset:0;stroke-opacity:1" />
      <text
         id="text5688"
         y="28.832527"
         x="-31.280313"
         style="font-style:normal;font-variant:normal;font-weight:normal;font-stretch:normal;font-size:6.35000086px;line-height:1.25;font-family:Inconsolata;-inkscape-font-specification:Inconsolata;letter-spacing:0px;word-spacing:0px;fill:#000000;fill-opacity:1;stroke:none;stroke-width:0.26458332"
         xml:space="preserve"><tspan
           style="stroke-width:0.26458332"
           y="28.832527"
           x="-31.280313"
           id="tspan5686"
           sodipodi:role="line">but_handler</tspan></text>
      <text
         id="text5694"
         y="149.70461"
         x="133.38765"
         style="font-style:normal;font-variant:normal;font-weight:normal;font-stretch:normal;font-size:6.35000086px;line-height:1.25;font-family:Inconsolata;-inkscape-font-specification:Inconsolata;letter-spacing:0px;word-spacing:0px;fill:#000000;fill-opacity:1;stroke:none;stroke-width:0.26458332"
         xml:space="preserve"><tspan
           style="stroke-width:0.26458332"
           y="149.70461"
           x="133.38765"
           id="tspan5692"
           sodipodi:role="line">PIN</tspan></text>
      <circle
         r="5.0917988"
         cy="63.861408"
         cx="-14.923765"
         id="path5690-2"
         style="fill:#ffffff;fill-opacity:1;stroke:#000000;stroke-width:0.38879952;stroke-miterlimit:4;stroke-dasharray:none;stroke-dashoffset:0;stroke-opacity:1" />
      <text
         id="text5694-7"
         y="65.683662"
         x="-7.6630077"
         style="font-style:normal;font-variant:normal;font-weight:normal;font-stretch:normal;font-size:6.35000086px;line-height:1.25;font-family:Inconsolata;-inkscape-font-specification:Inconsolata;letter-spacing:0px;word-spacing:0px;fill:#000000;fill-opacity:1;stroke:none;stroke-width:0.26458332"
         xml:space="preserve"><tspan
           style="stroke-width:0.26458332"
           y="65.683662"
           x="-7.6630077"
           id="tspan5692-0"
           sodipodi:role="line">PIN</tspan></text>
      <text
         id="text5858"
         y="12.892491"
         x="48.108513"
         style="font-style:normal;font-variant:normal;font-weight:normal;font-stretch:normal;font-size:6.35000086px;line-height:1.25;font-family:Inconsolata;-inkscape-font-specification:Inconsolata;letter-spacing:0px;word-spacing:0px;fill:#000000;fill-opacity:1;stroke:none;stroke-width:0.26458332"
         xml:space="preserve"><tspan
           style="stroke-width:0.26458332"
           y="12.892491"
           x="48.108513"
           id="tspan5856"
           sodipodi:role="line">xSemaphoreBut</tspan></text>
      <text
         id="text5862"
         y="69.019089"
         x="112.52047"
         style="font-style:normal;font-variant:normal;font-weight:normal;font-stretch:normal;font-size:6.35000086px;line-height:1.25;font-family:Inconsolata;-inkscape-font-specification:Inconsolata;letter-spacing:0px;word-spacing:0px;fill:#000000;fill-opacity:1;stroke:none;stroke-width:0.26458332"
         xml:space="preserve"><tspan
           style="stroke-width:0.26458332"
           y="69.019089"
           x="112.52047"
           id="tspan5860"
           sodipodi:role="line">xQueueMsgFreq</tspan></text>
      <path
         inkscape:connector-curvature="0"
         id="path6458"
         d="M 12.945685,27.030505 H 34.490326"
         style="fill:none;stroke:#000000;stroke-width:0.5;stroke-linecap:butt;stroke-linejoin:miter;stroke-opacity:1;stroke-miterlimit:4;stroke-dasharray:none;marker-end:url(#marker6468)" />
      <path
         inkscape:connector-curvature="0"
         id="path6812"
         d="M -15.100728,57.793773 V 34.942227"
         style="fill:none;stroke:#000000;stroke-width:0.5;stroke-linecap:butt;stroke-linejoin:miter;stroke-opacity:1;stroke-miterlimit:4;stroke-dasharray:none;marker-end:url(#marker6822)" />
      <circle
         r="5.0917988"
         cy="148.31363"
         cx="125.58259"
         id="path5690-2-0"
         style="fill:#ffffff;fill-opacity:1;stroke:#000000;stroke-width:0.38879952;stroke-miterlimit:4;stroke-dasharray:none;stroke-dashoffset:0;stroke-opacity:1" />
    </g>
  </g>
</svg>
